<?xml version="1.0" encoding="UTF-8" standalone="no"?>
<!-- Created with Inkscape (http://www.inkscape.org/) -->

<svg
   width="31.098099mm"
   height="27.255859mm"
   viewBox="0 0 31.098099 27.255859"
   version="1.1"
   id="svg5"
   inkscape:version="1.2.2 (732a01da63, 2022-12-09, custom)"
   sodipodi:docname="logo.svg"
   inkscape:export-filename="../264870fe/logo-export.svg"
   inkscape:export-xdpi="443.81689"
   inkscape:export-ydpi="443.81689"
   xmlns:inkscape="http://www.inkscape.org/namespaces/inkscape"
   xmlns:sodipodi="http://sodipodi.sourceforge.net/DTD/sodipodi-0.dtd"
   xmlns="http://www.w3.org/2000/svg"
   xmlns:svg="http://www.w3.org/2000/svg">
  <sodipodi:namedview
     id="namedview7"
     pagecolor="#ffffff"
     bordercolor="#000000"
     borderopacity="0.25"
     inkscape:showpageshadow="2"
     inkscape:pageopacity="0.0"
     inkscape:pagecheckerboard="0"
     inkscape:deskcolor="#d1d1d1"
     inkscape:document-units="mm"
     showgrid="false"
     inkscape:zoom="11.313709"
     inkscape:cx="447.99634"
     inkscape:cy="286.95277"
     inkscape:window-width="1920"
     inkscape:window-height="1012"
     inkscape:window-x="0"
     inkscape:window-y="32"
     inkscape:window-maximized="1"
     inkscape:current-layer="text1843" />
  <defs
     id="defs2">
    <rect
       x="111.38501"
       y="364.55865"
       width="304.63864"
       height="301.01743"
       id="rect113" />
  </defs>
  <g
     inkscape:label="Layer 1"
     inkscape:groupmode="layer"
     id="layer1"
     transform="translate(-98.562258,-54.49285)">
    <g
       aria-label="e"
       transform="matrix(0.26458333,0,0,0.26458333,36.219739,-0.98185932)"
       id="text111"
       style="font-size:192px;font-family:'Cascadia Code';-inkscape-font-specification:'Cascadia Code';white-space:pre;shape-inside:url(#rect113)">
      <g
         aria-label="e"
         id="text1843"
         style="font-weight:bold;font-family:Rubik;-inkscape-font-specification:'Rubik Bold';fill:#990000">
        <path
           d="m 133.26316,478.9329 c -9.29918,-0.82522 -16.74425,-2.92976 -25.70425,-11.12176 -8.96,-8.192 -13.632,-20.352 -14.016,-36.48 v -3.456 -3.264 c 0.384,-10.112 2.624,-18.752 6.72,-25.92 4.224,-7.296 9.984,-12.8 17.28,-16.512 7.424,-3.84 16.064,-5.76 25.92,-5.76 11.264,0 20.544,2.24 27.84,6.72 7.424,4.48 12.992,10.56 16.704,18.24 3.712,7.68 5.568,16.448 5.568,26.304 v 4.608 c 0,1.408 -0.448,2.56 -1.344,3.456 -0.896,0.896 -2.048,1.344 -3.456,1.344 h -61.44 v 0.576 0.768 c 0.128,3.712 0.54167,7.01128 1.92,10.176 1.20626,2.76963 2.8536,5.63366 5.376,7.296 2.32624,1.53306 5.3583,1.72382 8.13855,1.90236 3.45632,0.22195 7.25415,0.52706 10.33697,-1.05143 2.44446,-1.25163 4.21845,-3.71721 5.46786,-6.16281 1.21593,-2.38006 0.67842,-4.17751 1.74124,-7.82666 0.24159,-0.82949 1.20558,-1.61083 2.63742,-1.63632 2.84004,-0.0505 3.01316,-0.091 5.4654,-0.0546 0.67771,0.0101 1.50207,0.28648 2.09055,1.37659 1.01413,1.87862 5.16381,9.96243 6.52826,12.71583 0.64272,1.29699 0.52887,1.50881 -0.18371,2.78915 -1.02628,1.844 -3.42796,6.43116 -4.76132,7.95546 -4.77451,5.45822 -8.03222,8.23461 -13.21637,10.32923 -7.95931,3.2159 -17.17112,2.96994 -25.6126,2.6885 -1.4e-4,0 0,4.1e-4 0,4.1e-4 z m -5.92825,-60.84976 h 32.448 v -0.384 c 0,-4.224 -0.64,-7.808 -1.92,-10.752 -1.152,-3.072 -3.008,-5.44 -5.568,-7.104 -2.432,-1.664 -5.376,-2.496 -8.832,-2.496 -3.328,0 -6.208,0.832 -8.64,2.496 -2.432,1.664 -4.288,4.032 -5.568,7.104 -1.28,2.944 -1.92,6.528 -1.92,10.752 z"
           id="path1954"
           sodipodi:nodetypes="cscccccscssssscccaaaaasssssssasccsccsscsccs"
           inkscape:export-filename="../5d74fb5d/logo-thick.svg"
           inkscape:export-xdpi="96"
           inkscape:export-ydpi="96" />
        <path
           style="fill:#990000;fill-opacity:1"
           d="m 173.80586,441.0052 19.76113,0.0403 20.20685,39.85556 -19.30102,0.0931 z"
           id="path1957"
           sodipodi:nodetypes="ccccc" />
        <path
           id="path2421"
           style="font-weight:bold;font-size:192px;font-family:Rubik;-inkscape-font-specification:'Rubik Bold';white-space:pre;shape-inside:url(#rect113);fill:#990000;fill-opacity:1"
           d="m 285.54519,209.6683 c -9.85598,-0.0164 -18.49593,1.91977 -25.91992,5.75976 -7.296,3.712 -13.0553,9.21573 -17.2793,16.51172 -4.096,7.16799 -6.3367,15.80793 -6.7207,25.91992 v 3.26563 3.45508 c 0.384,16.12798 5.05758,28.28847 14.01757,36.48047 8.96,8.19199 15.03324,10.04296 25.70313,11.12109 8.67776,0.87684 17.65398,0.52644 25.61328,-2.68945 5.18415,-2.09461 8.44229,-4.86991 13.2168,-10.32813 1.33336,-1.5243 3.73594,-6.10972 4.75976,-7.95508 0.46027,-0.82961 0.90182,-1.41862 0.1836,-2.78906 -1.42644,-2.7218 -4.05215,-8.04245 -5.60891,-11.0115 -1.25832,-2.39985 -1.56974,-2.85277 -3.21813,-2.98639 -2.45224,-0.0364 -2.41691,-0.0919 -5.25695,-0.0412 -1.43184,0.0255 -2.39513,0.80723 -2.63672,1.63672 -1.06281,3.64914 -0.52625,5.44611 -1.74218,7.82617 -1.24941,2.4456 -3.02234,4.91243 -5.4668,6.16406 -3.08282,1.57849 -6.88157,1.27274 -10.33789,1.05078 -2.78025,-0.17853 -5.81243,-0.36927 -8.13867,-1.90234 -2.5224,-1.66233 -4.16874,-4.52725 -5.375,-7.29688 -1.37833,-3.16471 -1.79192,-6.46378 -1.91992,-10.17578 v -0.76758 -0.57617 h 61.43945 c 1.408,0 2.56103,-0.44775 3.45703,-1.34375 0.896,-0.896 1.34375,-2.04708 1.34375,-3.45508 v -4.60937 c 0,-9.85599 -1.85636,-18.62274 -5.56836,-26.30274 -3.712,-7.67999 -9.27913,-13.76023 -16.70312,-18.24023 -7.296,-4.48 -16.07834,-6.70118 -27.34231,-6.71988 z m 0,20.92773 c 3.456,0 6.40003,0.8321 8.83203,2.4961 2.56,1.66399 4.41636,4.03151 5.56836,7.10351 1.28,2.944 1.91992,6.52796 1.91992,10.75195 v 0.38477 h -32.44726 v -0.38477 c 0,-4.22399 0.63992,-7.80795 1.91992,-10.75195 1.28,-3.072 3.13636,-5.43952 5.56836,-7.10351 2.43199,-1.664 5.31067,-2.4961 8.63867,-2.4961 z m 34.40456,43.58812 c -2.11996,0.0809 -2.51821,2.11447 -1.9436,3.2965 1.56153,3.21224 11.05383,23.71949 15.7448,32.59227 1.15951,2.19318 1.72035,2.60389 3.5478,2.60953 6.43359,-0.0312 9.42904,-0.20384 15.86263,-0.23504 -3.36784,-6.64258 -12.58178,-26.89041 -15.49506,-33.23055 -1.71135,-3.72441 -2.98193,-5.02814 -4.98541,-5.15622 -5.08699,0.0503 -8.2548,0.0522 -12.73116,0.12351 z"
           sodipodi:nodetypes="scccccssssssscssssssscccssssscssccsccscssccssccscc"
           inkscape:export-filename="../79972e58/logo3.svg"
           inkscape:export-xdpi="443.81689"
           inkscape:export-ydpi="443.81689" />
      </g>
    </g>
  </g>
</svg>
