<?xml version="1.0" encoding="UTF-8"?>
<svg width="26.517mm" height="27.227mm" version="1.1" viewBox="0 0 26.517 27.227" xmlns="http://www.w3.org/2000/svg">
<g transform="translate(-163.19 -38.355)">
<path d="m176.4 38.355c-2.6077-0.0045-4.8937 0.50794-6.858 1.5239-1.9304 0.98213-3.4542 2.4383-4.5718 4.3687-1.0837 1.8965-1.6766 4.1825-1.7782 6.858v1.7782c0.10159 4.2672 1.3381 7.4847 3.7088 9.6521 2.3707 2.1675 3.9776 2.6572 6.8006 2.9424 2.296 0.232 4.6579 0.10641 6.7768-0.71158 1.0452-0.40348 2.0182-1.1061 2.7115-1.9862 0.54937-0.69738 0.80418-1.598 1.027-2.4573 0.18204-0.70201 0.21241-1.4375 0.24225-2.1622 0.0331-0.80411-0.01-1.4683 0-2.4133 2e-3 -0.24466-0.21956-0.27105-0.67407-0.26497-0.401-0.0013-1.5702-0.03905-2.3724 0-0.35185 0.01712-0.39377 0.58732-0.54452 0.9057-0.24733 0.52237-0.29597 1.1314-0.58334 1.6328-0.34388 0.6001-0.72176 1.2664-1.3329 1.5902-0.80979 0.42907-1.8208 0.33675-2.7352 0.27802-0.73561-0.04724-1.5379-0.0977-2.1534-0.50333-0.66738-0.43982-1.103-1.1978-1.4221-1.9306-0.36469-0.83733-0.47412-1.7102-0.50798-2.6923v-0.35553h16.256c0.37254 0 0.67761-0.11847 0.91467-0.35553 0.23707-0.23707 0.35554-0.54162 0.35554-0.91416v-1.2196c0-2.6077-0.49116-4.9273-1.4733-6.9593-0.98213-2.032-2.4551-3.6407-4.4194-4.8261-1.9304-1.1853-4.2541-1.7728-7.2343-1.778zm0 5.5371c0.9144 0 1.6933 0.22016 2.3368 0.66043 0.67733 0.44026 1.1685 1.0667 1.4733 1.8795 0.33867 0.77893 0.50799 1.7272 0.50799 2.8448v0.1018h-8.585v-0.1018c0-1.1176 0.16931-2.0659 0.50799-2.8448 0.33866-0.8128 0.82983-1.4392 1.4733-1.8795 0.64347-0.44027 1.4051-0.66043 2.2856-0.66043zm9.5418 11.591c-0.56132 0-0.51594 0.50364-0.51425 0.85137 0.0126 2.5922-0.0273 6.0858 0 8.5901 7e-3 0.65634 0.58357 0.63013 1.0671 0.63162 1.7022-8e-3 1.5121 8e-3 3.2143 0-0.0258-2.0039-0.0405-6.9441-0.0498-8.7828-6e-3 -1.0845-0.61753-1.2565-1.1476-1.2904-0.62483-0.01363-0.8891 0-2.5697 0z" fill="currentColor" style="shape-inside:url(#rect113);white-space:pre"/>
</g>
</svg>
