<?xml version="1.0" encoding="UTF-8" standalone="no"?>
<!-- Created with Inkscape (http://www.inkscape.org/) -->

<svg
   width="31.957726mm"
   height="28.165688mm"
   viewBox="0 0 31.957726 28.165688"
   version="1.1"
   id="svg5"
   xmlns="http://www.w3.org/2000/svg"
   xmlns:svg="http://www.w3.org/2000/svg">
  <defs
     id="defs2">
    <rect
       x="111.38501"
       y="364.55865"
       width="304.63864"
       height="301.01743"
       id="rect113" />
  </defs>
  <g
     id="layer1"
     transform="translate(-60.969636,-98.612371)">
    <g
       aria-label="e"
       transform="matrix(0.26458333,0,0,0.26458333,36.219739,-0.98185932)"
       id="text111"
       style="font-size:192px;font-family:'Cascadia Code';-inkscape-font-specification:'Cascadia Code';white-space:pre;shape-inside:url(#rect113)">
      <g
         aria-label="e"
         id="text1843"
         style="font-weight:bold;font-family:Rubik;-inkscape-font-specification:'Rubik Bold';fill:#990000">
        <path
           d="m 133.26316,478.9329 c -9.29918,-0.82522 -16.74425,-2.92976 -25.70425,-11.12176 -8.96,-8.192 -13.632,-20.352 -14.016,-36.48 v -3.456 -3.264 c 0.384,-10.112 2.624,-18.752 6.72,-25.92 4.224,-7.296 9.984,-12.8 17.28,-16.512 7.424,-3.84 16.064,-5.76 25.92,-5.76 11.264,0 20.544,2.24 27.84,6.72 7.424,4.48 12.992,10.56 16.704,18.24 3.712,7.68 5.568,16.448 5.568,26.304 v 4.608 c 0,1.408 -0.448,2.56 -1.344,3.456 -0.896,0.896 -2.048,1.344 -3.456,1.344 h -61.44 v 0.576 0.768 c 0.128,3.712 0.54167,7.01128 1.92,10.176 1.20626,2.76963 2.8536,5.63366 5.376,7.296 2.32624,1.53306 5.3583,1.72382 8.13855,1.90236 3.45632,0.22195 7.15587,0.31823 10.33697,-1.05143 1.7766,-0.76494 3.24634,-2.23322 4.39392,-3.7903 1.92792,-2.61589 1.52138,-6.71876 3.8971,-8.9359 0.63162,-0.58947 1.57766,-0.87956 2.44156,-0.86978 3.24056,0.0367 3.33807,-0.0776 5.79031,-0.0412 0.67771,0.0101 1.88946,0.70187 2.30733,1.42161 1.04357,1.79745 5.15813,8.76408 4.87113,10.62762 -1.00799,3.0312 -2.59667,7.29277 -4.71565,10.74461 -2.92516,4.76511 -8.03222,8.23461 -13.21637,10.32923 -7.95931,3.2159 -17.17112,2.96994 -25.6126,2.6885 -1.4e-4,0 0,4.1e-4 0,4.1e-4 z m -5.92825,-60.84976 h 32.448 v -0.384 c 0,-4.224 -0.64,-7.808 -1.92,-10.752 -1.152,-3.072 -3.008,-5.44 -5.568,-7.104 -2.432,-1.664 -5.376,-2.496 -8.832,-2.496 -3.328,0 -6.208,0.832 -8.64,2.496 -2.432,1.664 -4.288,4.032 -5.568,7.104 -1.28,2.944 -1.92,6.528 -1.92,10.752 z"
           id="path1954" />
        <path
           style="fill:#990000;fill-opacity:1"
           d="m 173.97979,442.91815 20.16179,0.16547 20.18646,39.78852 -19.08628,-0.33313 z"
           id="path1957" />
      </g>
    </g>
  </g>
</svg>
