<?xml version="1.0" encoding="UTF-8" standalone="no"?>
<!-- Created with Inkscape (http://www.inkscape.org/) -->

<svg
   width="34.129417mm"
   height="28.61541mm"
   viewBox="0 0 34.129417 28.61541"
   version="1.1"
   id="svg5"
   inkscape:version="1.2.2 (732a01da63, 2022-12-09, custom)"
   sodipodi:docname="logo.svg"
   inkscape:export-filename="../264870fe/logo-export.svg"
   inkscape:export-xdpi="443.81689"
   inkscape:export-ydpi="443.81689"
   xmlns:inkscape="http://www.inkscape.org/namespaces/inkscape"
   xmlns:sodipodi="http://sodipodi.sourceforge.net/DTD/sodipodi-0.dtd"
   xmlns="http://www.w3.org/2000/svg"
   xmlns:svg="http://www.w3.org/2000/svg">
  <sodipodi:namedview
     id="namedview7"
     pagecolor="#ffffff"
     bordercolor="#000000"
     borderopacity="0.25"
     inkscape:showpageshadow="2"
     inkscape:pageopacity="0.0"
     inkscape:pagecheckerboard="0"
     inkscape:deskcolor="#d1d1d1"
     inkscape:document-units="mm"
     showgrid="false"
     inkscape:zoom="4.228078"
     inkscape:cx="287.71939"
     inkscape:cy="499.63601"
     inkscape:window-width="1920"
     inkscape:window-height="1012"
     inkscape:window-x="0"
     inkscape:window-y="32"
     inkscape:window-maximized="1"
     inkscape:current-layer="text111" />
  <defs
     id="defs2">
    <rect
       x="111.38501"
       y="364.55865"
       width="304.63864"
       height="301.01743"
       id="rect113" />
  </defs>
  <g
     inkscape:label="Layer 1"
     inkscape:groupmode="layer"
     id="layer1"
     transform="translate(-68.179498,-115.45488)">
    <g
       aria-label="e"
       transform="matrix(0.26458333,0,0,0.26458333,36.219739,-0.98185932)"
       id="text111"
       style="font-size:192px;font-family:'Cascadia Code';-inkscape-font-specification:'Cascadia Code';white-space:pre;shape-inside:url(#rect113)">
      <path
         d="m 165.52877,543.7559 c -13.312,0 -23.872,-4.032 -31.68,-12.096 -7.808,-8.192 -12.096,-19.328 -12.864,-33.408 -0.128,-1.664 -0.192,-3.776 -0.192,-6.336 0,-2.688 0.064,-4.864 0.192,-6.528 0.512,-9.088 2.624,-17.024 6.336,-23.808 3.712,-6.912 8.768,-12.224 15.168,-15.936 6.528,-3.712 14.144,-5.568 22.848,-5.568 9.728,0 17.856,2.048 24.384,6.144 6.656,4.096 11.712,9.92 15.168,17.472 3.456,7.552 5.184,16.384 5.184,26.496 v 3.264 c 0,1.408 -0.448,2.496 -1.344,3.264 -0.768,0.768 -1.792,1.152 -3.072,1.152 h -66.432 v 0.768 0.96 c 0.256,5.248 1.408,10.176 3.456,14.784 2.048,4.48 4.992,8.128 8.832,10.944 3.968,2.816 6.06734,4.17246 11.31534,4.17246 4.608,0 6.07798,0.32359 9.85381,-0.67554 4.68056,-1.56718 6.22288,-2.35111 8.5889,-5.55831 2.50332,-3.39332 2.06213,-9.21816 3.58775,-13.21847 1.33847,-4.22303 3.24749,-5.37227 4.9531,-4.35836 2.5045,3.58943 2.69669,3.74356 5.11434,6.92071 1.44126,2.17691 2.71195,4.01744 2.79959,6.46003 -0.0184,2.31746 0.24764,7.64751 -2.55156,11.51117 -5.55656,7.2074 -9.84035,9.39777 -17.57572,12.08181 -5.12,1.664 -5.54155,1.0965 -12.06955,1.0965 z m -26.304,-59.136 h 52.608 v -0.576 c 0,-5.76 -1.088,-10.88 -3.264,-15.36 -2.048,-4.48 -5.056,-8 -9.024,-10.56 -3.968,-2.688 -8.704,-4.032 -14.208,-4.032 -5.504,0 -10.24,1.344 -14.208,4.032 -3.84,2.56 -6.784,6.08 -8.832,10.56 -2.048,4.48 -3.072,9.6 -3.072,15.36 z"
         style="font-family:Rubik;-inkscape-font-specification:Rubik;fill:#990000;fill-opacity:1"
         id="path736"
         sodipodi:nodetypes="sccscccscssscscccccscsccccccsccsccscssc"
         inkscape:export-filename="../264870fe/logo-export.svg"
         inkscape:export-xdpi="443.81689"
         inkscape:export-ydpi="443.81689" />
      <path
         style="fill:#990000;fill-opacity:1"
         d="m 193.60515,504.88187 16.59104,-0.0284 c 2.90315,6.03528 6.73948,11.7951 14.41686,20.47529 7.67738,8.6802 15.4992,17.71582 25.1728,22.89982 l -20.40184,-0.29587 c -9.15833,-6.2748 -11.31337,-11.39248 -18.49875,-19.31599 0,0 -13.06424,-16.54729 -17.28011,-23.73482 z"
         id="path764"
         sodipodi:nodetypes="cczcccc" />
    </g>
  </g>
</svg>
